# xmcd
#
# Track frame offsets: 
#        150
#        15450
#        30340
#        45580
#        58783
#        71270
#        82375
#        101213
#        118080
#        131578
#
# Disc length: 1987 seconds
#
# Revision: 3
# Processed by: cddbd v1.5.2PL0 Copyright (c) Steve Scherf et al.
# Submitted via: ExactAudioCopy v1.0b3
#
DISCID=8407bf0a,8407c10a
DTITLE=David Lee Murphy - Out With A Bang
DYEAR=1994
DGENRE=Country
TTITLE0=Can't Turn It Off
TTITLE1=Party Crowd
TTITLE2=Mama 'N Them
TTITLE3=High Weeds And Rust
TTITLE4=Fish Ain't Bitin'
TTITLE5=Out With A Bang
TTITLE6=Greatest Show On Earth
TTITLE7=Dust On The Bottle
TTITLE8=Just Once
TTITLE9=Why Can't People Just Get Along
EXTD=
EXTT0=
EXTT1=
EXTT2=
EXTT3=
EXTT4=
EXTT5=
EXTT6=
EXTT7=
EXTT8=
EXTT9=
PLAYORDER=
